# xmcd
#
# Track frame offsets: 
#        150
#        15778
#        29935
#        44938
#        56925
#        72425
#        110675
#        125612
#        140085
#        154807
#        169712
#        183515
#        198220
#        213305
#        226848
#        240720
#        253587
#        265865
#        280592
#        293944
#
# Disc length: 4085 seconds
#
# Revision: 2
# Processed by: cddbd v1.5.2PL0 Copyright (c) Steve Scherf et al.
# Submitted via: ExactAudioCopyFreeDBPlugin 1.0
#
DISCID=370ff314
DTITLE=Duke Ellington - Essential [CD1]
DYEAR=2009
DGENRE=Jazz
TTITLE0=Black And Tan Fantasy
TTITLE1=East St Louis Toodle-Oo
TTITLE2=Hot And Bothered
TTITLE3=Take It Easy
TTITLE4=The Mooche
TTITLE5=Creole Rhapsody
TTITLE6=Rockin In Rhythm
TTITLE7=It Don't Mean A Thing (If It Ain't Got That Swing)
TTITLE8=Creole Love Call
TTITLE9=Sophisticated Lady
TTITLE10=Drop Me Off In Harlem
TTITLE11=Solitude
TTITLE12=In A Senitmental Mood
TTITLE13=Clouds In My Heart
TTITLE14=Echoes Of Harlem
TTITLE15=Back Room Romp
TTITLE16=Caravan
TTITLE17=Crescendo In Blue
TTITLE18=Blue Reverie
TTITLE19=Diminuendo In Blue
EXTD=YEAR: 2009
EXTT0=
EXTT1=
EXTT2=
EXTT3=
EXTT4=
EXTT5=
EXTT6=
EXTT7=
EXTT8=
EXTT9=
EXTT10=
EXTT11=
EXTT12=
EXTT13=
EXTT14=
EXTT15=
EXTT16=
EXTT17=
EXTT18=
EXTT19=
PLAYORDER=
